# xmcd
#
# Track frame offsets:
#	150
#	25034
#	42447
#	63468
#	76612
#	91136
#	106636
#	123365
#	146085
#	168918
#	188924
#	204873
#	226298
#	244518
#	259664
#	275180
#	290926
#	311322
#
# Disc length: 4410 seconds
#
# Revision: 0
# Processed by: cddbd v1.5.2PL0 Copyright (c) Steve Scherf et al.
# Submitted via: EasyCDDAExtractor 12.0.7.1
#
DISCID=f0113812
DTITLE=Катя Огонёк - Аллея шансона
DYEAR=2011
DGENRE=Chanson
TTITLE0=Дорожный роман
TTITLE1=Алюминиевый крестик
TTITLE2=Я ревную тебя
TTITLE3=Зацелую, залюблю
TTITLE4=Далеко-далеко (исп. К.Огонек и В.Черняков)
TTITLE5=Глупенький
TTITLE6=Подруженька
TTITLE7=Здравствуй, любовь (исп. К.Огонек и В.Черняков)
TTITLE8=Хакинск
TTITLE9=Лейтенантик
TTITLE10=Я зажгу для тебя огонек
TTITLE11=Скажи, что ты любишь (исп. К.Огонек и В.Черняков)
TTITLE12=Вино любви (исп. К.Огонек и В.Черняков)
TTITLE13=Дочка
TTITLE14=Я не могу без него
TTITLE15=А я пою
TTITLE16=В сердце моем
TTITLE17=Северная ночь
EXTD=
EXTT0=
EXTT1=
EXTT2=
EXTT3=
EXTT4=
EXTT5=
EXTT6=
EXTT7=
EXTT8=
EXTT9=
EXTT10=
EXTT11=
EXTT12=
EXTT13=
EXTT14=
EXTT15=
EXTT16=
EXTT17=
PLAYORDER=
